<?xml version="1.0" encoding="iso-8859-1"?>
<!-- Generator: Adobe Illustrator 19.0.0, SVG Export Plug-In . SVG Version: 6.00 Build 0)  -->
<svg version="1.1" id="Layer_1" xmlns="http://www.w3.org/2000/svg" xmlns:xlink="http://www.w3.org/1999/xlink" x="0px" y="0px"
	 viewBox="0 0 512 512" style="enable-background:new 0 0 512 512;" xml:space="preserve">
<polygon style="fill:#F2B851;" points="0,110.996 431.44,110.996 431.44,74.596 164.192,74.596 142.568,53.196 0,53.196 0,79.084 
	"/>
<rect x="18.208" y="92.804" style="fill:#FFFFFF;" width="395.04" height="18.192"/>
<polygon style="fill:#FFD67F;" points="373.76,399.82 431.44,342.148 431.44,110.996 0,110.996 0,399.836 373.776,399.836 "/>
<g style="opacity:0.75;">
	<polygon style="fill:#FFFFFF;" points="366.832,383.076 364,380.244 411.224,333.02 411.224,129.188 415.224,129.188 
		415.224,334.676 	"/>
</g>
<polygon style="fill:#E04F5F;" points="449.72,458.804 234.464,458.804 296.744,255.34 512,255.34 "/>
<polygon style="fill:#FFFFFF;" points="368.712,403.06 326.912,370.484 333.056,362.596 366.52,388.668 417.28,315.428 
	425.504,321.132 "/>
<g>
</g>
<g>
</g>
<g>
</g>
<g>
</g>
<g>
</g>
<g>
</g>
<g>
</g>
<g>
</g>
<g>
</g>
<g>
</g>
<g>
</g>
<g>
</g>
<g>
</g>
<g>
</g>
<g>
</g>
</svg>
